<svg xmlns="http://www.w3.org/2000/svg" viewBox="0 0 32 32">
  <defs>
    <linearGradient id="gold" x1="0" y1="0" x2="1" y2="1">
      <stop offset="0%" stop-color="#ffe14d"/>
      <stop offset="50%" stop-color="#ffc107"/>
      <stop offset="100%" stop-color="#e5a100"/>
    </linearGradient>
    <linearGradient id="goldLight" x1="0" y1="0" x2="1" y2="1">
      <stop offset="0%" stop-color="#fff176"/>
      <stop offset="50%" stop-color="#ffd54f"/>
      <stop offset="100%" stop-color="#ffca28"/>
    </linearGradient>
  </defs>
  <circle cx="16" cy="16" r="16" fill="url(#gold)"/>
  <circle cx="16" cy="16" r="14.5" fill="url(#goldLight)"/>
  <circle cx="16" cy="16" r="12" fill="url(#gold)" stroke="#e5a100" stroke-width="0.4"/>
  <circle cx="16" cy="16" r="11" fill="url(#goldLight)"/>
  <path d="M10,16 Q11.5,11 16,10 Q12,12.5 11,16" fill="#e5a100" opacity="0.5"/>
  <path d="M10.5,18 Q12,13.5 16,12 Q12.5,14.5 11.5,18" fill="#e5a100" opacity="0.4"/>
  <path d="M22,16 Q20.5,11 16,10 Q20,12.5 21,16" fill="#e5a100" opacity="0.5"/>
  <path d="M21.5,18 Q20,13.5 16,12 Q19.5,14.5 20.5,18" fill="#e5a100" opacity="0.4"/>
  <text x="16" y="20.5" text-anchor="middle" font-family="system-ui, sans-serif" font-size="12" font-weight="bold" fill="#c8960a">28</text>
</svg>
